<svg xmlns="http://www.w3.org/2000/svg" width="120" height="120" viewBox="0 0 120 120" fill="none">
  <path
    d="M60 4 C52 18, 38 22, 24 18 C30 32, 28 48, 18 58 C32 54, 48 58, 60 70 C72 58, 88 54, 102 58 C92 48, 90 32, 96 18 C82 22, 68 18, 60 4 Z"
    stroke="currentColor"
    stroke-width="1.2"
    fill="none"
    opacity="0.55"
  />
  <path
    d="M60 14 C54 24, 44 27, 34 24 C38 34, 37 44, 30 50 C40 48, 50 50, 60 58 C70 50, 80 48, 90 50 C83 44, 82 34, 86 24 C76 27, 66 24, 60 14 Z"
    stroke="currentColor"
    stroke-width="0.8"
    fill="none"
    opacity="0.4"
  />
  <circle cx="60" cy="36" r="2" fill="currentColor" opacity="0.35" />
  <circle cx="48" cy="42" r="1.5" fill="currentColor" opacity="0.3" />
  <circle cx="72" cy="42" r="1.5" fill="currentColor" opacity="0.3" />
  <path
    d="M8 60 Q20 52 32 60 Q20 68 8 60 M88 60 Q100 52 112 60 Q100 68 88 60"
    stroke="currentColor"
    stroke-width="1"
    fill="none"
    opacity="0.45"
  />
  <path
    d="M4 60 C4 40, 20 20, 60 8 C100 20, 116 40, 116 60 C116 80, 100 100, 60 112 C20 100, 4 80, 4 60 Z"
    stroke="currentColor"
    stroke-width="0.6"
    stroke-dasharray="3 4"
    fill="none"
    opacity="0.35"
  />
</svg>
