<svg xmlns="http://www.w3.org/2000/svg" width="200" height="24" viewBox="0 0 200 24" fill="none">
  <path
    d="M0 12 C10 4, 20 20, 30 12 S50 4, 60 12 S80 20, 90 12 S110 4, 120 12 S140 20, 150 12 S170 4, 180 12 S190 20, 200 12"
    stroke="currentColor"
    stroke-width="1"
    fill="none"
    opacity="0.5"
  />
  <path
    d="M0 12 C10 16, 20 8, 30 12 S50 16, 60 12 S80 8, 90 12 S110 16, 120 12 S140 8, 150 12 S170 16, 180 12 S190 8, 200 12"
    stroke="currentColor"
    stroke-width="0.7"
    fill="none"
    opacity="0.35"
  />
  <circle cx="30" cy="12" r="1.5" fill="currentColor" opacity="0.4" />
  <circle cx="90" cy="12" r="1.5" fill="currentColor" opacity="0.4" />
  <circle cx="150" cy="12" r="1.5" fill="currentColor" opacity="0.4" />
</svg>
